<svg width="41" height="40" viewBox="0 0 41 40" fill="none" xmlns="http://www.w3.org/2000/svg">
<path d="M32.3333 20.0026C32.3338 17.7092 31.6771 15.4638 30.4409 13.532C29.2048 11.6003 27.441 10.0633 25.3584 9.10287C23.2758 8.14249 20.9617 7.799 18.6899 8.11307C16.4181 8.42714 14.2839 9.38562 12.54 10.875C10.7961 12.3644 9.5155 14.3224 8.84985 16.517C8.18419 18.7116 8.16137 21.0511 8.78407 23.2583C9.40677 25.4655 10.6489 27.448 12.3634 28.9712C14.078 30.4943 16.193 31.4943 18.4583 31.8526V23.4706H15.4123V20.0026H18.4583V17.3576C18.3928 16.7404 18.464 16.1163 18.6665 15.5296C18.8691 14.9429 19.1982 14.4079 19.6305 13.9625C20.0629 13.5171 20.5878 13.1722 21.1682 12.9522C21.7486 12.7323 22.3703 12.6426 22.9893 12.6896C23.8893 12.7016 24.7873 12.7796 25.6763 12.9236V15.8806H24.1643C23.9067 15.8468 23.6448 15.8714 23.398 15.9526C23.1512 16.0337 22.9259 16.1694 22.7386 16.3494C22.5513 16.5295 22.407 16.7494 22.3162 16.9928C22.2254 17.2362 22.1906 17.4969 22.2143 17.7556V20.0056H25.5423L25.0103 23.4736H22.2083V31.8606C25.0317 31.414 27.603 29.9741 29.4591 27.8002C31.3153 25.6263 32.3345 22.8612 32.3333 20.0026Z" fill="white"/>
</svg>
