<svg width="40" height="40" viewBox="0 0 40 40" fill="none" xmlns="http://www.w3.org/2000/svg">
<path d="M27.2361 15.4582C26.9661 15.7283 26.5998 15.88 26.2179 15.88C25.8359 15.88 25.4697 15.7283 25.1996 15.4582C24.9296 15.1882 24.7779 14.8219 24.7779 14.44C24.7779 14.0581 24.9296 13.6918 25.1996 13.4218C25.4697 13.1517 25.8359 13 26.2179 13C26.5998 13 26.9661 13.1517 27.2361 13.4218C27.5062 13.6918 27.6579 14.0581 27.6579 14.44C27.6579 14.8219 27.5062 15.1882 27.2361 15.4582Z" fill="white"/>
<path fill-rule="evenodd" clip-rule="evenodd" d="M13.9999 20.602C13.9999 23.911 16.6909 26.602 19.9999 26.602C23.3089 26.602 25.9999 23.911 25.9999 20.602C25.9999 17.293 23.3089 14.602 19.9999 14.602C16.6909 14.602 13.9999 17.293 13.9999 20.602ZM16.9999 20.602C16.9999 18.947 18.3448 17.602 19.9999 17.602C21.6549 17.602 22.9999 18.947 22.9999 20.602C22.9999 22.257 21.6549 23.602 19.9999 23.602C18.3448 23.602 16.9999 22.257 16.9999 20.602Z" fill="white"/>
<path fill-rule="evenodd" clip-rule="evenodd" d="M7.99988 26C7.99988 29.084 10.9159 32 13.9999 32H25.9999C29.0839 32 31.9999 29.084 31.9999 26V14C31.9999 10.916 29.0839 8 25.9999 8H13.9999C10.9159 8 7.99988 10.916 7.99988 14V26ZM10.9999 14C10.9999 12.598 12.5979 11 13.9999 11H25.9999C27.4019 11 28.9999 12.598 28.9999 14V26C28.9999 27.402 27.4019 29 25.9999 29H13.9999C12.5699 29 10.9999 27.43 10.9999 26V14Z" fill="white"/>
</svg>
