<svg width="28" height="28" viewBox="0 0 28 28" fill="none" xmlns="http://www.w3.org/2000/svg">
<path d="M20.5997 19.433C19.451 20.5817 16.9847 23.048 15.4137 24.6189C14.6327 25.4 13.3679 25.4005 12.5868 24.6195C11.0427 23.0753 8.62592 20.6586 7.40033 19.433C3.75544 15.7881 3.75544 9.87856 7.40033 6.23367C11.0452 2.58878 16.9548 2.58878 20.5997 6.23367C24.2446 9.87856 24.2446 15.7881 20.5997 19.433Z" stroke="#E5383B" stroke-width="2" stroke-linecap="round" stroke-linejoin="round"/>
<path d="M17.5 12.8333C17.5 14.7663 15.933 16.3333 14 16.3333C12.067 16.3333 10.5 14.7663 10.5 12.8333C10.5 10.9003 12.067 9.33333 14 9.33333C15.933 9.33333 17.5 10.9003 17.5 12.8333Z" stroke="#E5383B" stroke-width="2" stroke-linecap="round" stroke-linejoin="round"/>
</svg>
