<svg width="41" height="40" viewBox="0 0 41 40" fill="none" xmlns="http://www.w3.org/2000/svg">
<path d="M32.6666 12.25C31.7666 12.7 30.8666 12.85 29.8166 13C30.8666 12.4 31.6166 11.5 31.9166 10.3C31.0166 10.9 29.9666 11.2 28.7666 11.5C27.8666 10.6 26.5166 10 25.1666 10C22.6166 10 20.3666 12.25 20.3666 14.95C20.3666 15.4 20.3666 15.7 20.5166 16C16.4666 15.85 12.7166 13.9 10.3166 10.9C9.86663 11.65 9.71663 12.4 9.71663 13.45C9.71663 15.1 10.6166 16.6 11.9666 17.5C11.2166 17.5 10.4666 17.2 9.71663 16.9C9.71663 19.3 11.3666 21.25 13.6166 21.7C13.1666 21.85 12.7166 21.85 12.2666 21.85C11.9666 21.85 11.6666 21.85 11.3666 21.7C11.9666 23.65 13.7666 25.15 16.0166 25.15C14.3666 26.5 12.2666 27.25 9.86663 27.25H8.66663C10.9166 28.6 13.4666 29.5 16.1666 29.5C25.1666 29.5 30.1166 22 30.1166 15.55V14.95C31.1666 14.2 32.0666 13.3 32.6666 12.25Z" fill="white"/>
</svg>
